<svg width="1143" height="743" viewBox="0 0 1143 743" fill="none" xmlns="http://www.w3.org/2000/svg">
<path d="M472.16 545.148C481.685 531.154 502.315 531.154 511.84 545.148L563.467 620.996C574.312 636.928 562.9 658.5 543.627 658.5H440.373C421.1 658.5 409.688 636.928 420.533 620.996L472.16 545.148Z" fill="#070707"/>
<rect x="133.5" y="128.5" width="718" height="436" rx="20.5" fill="#FDB549"/>
<rect x="133.5" y="128.5" width="718" height="436" rx="20.5" stroke="#F3960B"/>
<rect x="133.5" y="128.5" width="718" height="436" rx="20.5" stroke="#F3960B"/>
<rect x="133.5" y="128.5" width="718" height="436" rx="20.5" stroke="#F3960B"/>
<rect x="133.5" y="128.5" width="718" height="436" rx="20.5" stroke="#F3960B"/>
<rect x="133.5" y="128.5" width="718" height="436" rx="20.5" stroke="#F3960B"/>
<rect x="133.5" y="128.5" width="718" height="436" rx="20.5" stroke="#F3960B"/>
<rect x="133.5" y="128.5" width="718" height="436" rx="20.5" stroke="#F3960B"/>
<rect x="133.5" y="128.5" width="718" height="436" rx="20.5" stroke="#F3960B"/>
<rect x="133.5" y="128.5" width="718" height="436" rx="20.5" stroke="#F3960B"/>
<rect x="446" y="486" width="92" height="179" rx="18" fill="#DBAA2B"/>
<rect x="94" y="38" width="157" height="273" rx="21" fill="#0C0B0B"/>
<rect x="115" y="59" width="116" height="233" fill="#F3960B"/>
<ellipse cx="173" cy="263.5" rx="13" ry="13.5" fill="#0C0B0B"/>
<path d="M773.635 478.032C767.506 482.907 759.365 475.131 761.378 466.324L791.648 333.938C793.13 327.454 799.426 325.155 803.927 329.455L865.788 388.547C870.289 392.846 870.277 401.148 865.764 404.738L773.635 478.032Z" fill="#050505"/>
<rect x="713.689" y="128" width="337" height="276" rx="37" fill="#F3960B"/>
<rect x="722.689" y="177" width="224" height="16" rx="8" fill="#0D0C0C"/>
<rect x="810.689" y="224" width="224" height="16" rx="8" fill="#0D0C0C"/>
<rect x="722.689" y="270" width="224" height="16" rx="8" fill="#0D0C0C"/>
<rect x="810.689" y="317" width="224" height="16" rx="8" fill="#0D0C0C"/>
<path d="M189.23 407.711L188.078 408.473C187.375 407.431 186.457 406.611 185.324 406.012C184.204 405.4 182.987 405.094 181.672 405.094C179.536 405.094 177.714 405.849 176.203 407.359C174.693 408.87 173.938 410.693 173.938 412.828C173.938 414.964 174.693 416.786 176.203 418.297C177.714 419.807 179.536 420.562 181.672 420.562C182.987 420.562 184.204 420.257 185.324 419.645C186.457 419.033 187.375 418.206 188.078 417.164L189.211 417.984C188.378 419.208 187.297 420.178 185.969 420.895C184.641 421.611 183.208 421.969 181.672 421.969C180.435 421.969 179.25 421.728 178.117 421.246C176.997 420.764 176.027 420.113 175.207 419.293C174.387 418.473 173.736 417.503 173.254 416.383C172.772 415.25 172.531 414.065 172.531 412.828C172.531 411.591 172.772 410.413 173.254 409.293C173.736 408.16 174.387 407.184 175.207 406.363C176.027 405.543 176.997 404.892 178.117 404.41C179.25 403.928 180.435 403.688 181.672 403.688C183.221 403.688 184.66 404.052 185.988 404.781C187.316 405.497 188.397 406.474 189.23 407.711ZM191.555 406.109L190.383 406.871C189.419 405.465 188.169 404.352 186.633 403.531C185.109 402.698 183.456 402.281 181.672 402.281C179.758 402.281 177.993 402.757 176.379 403.707C174.764 404.645 173.482 405.921 172.531 407.535C171.594 409.15 171.125 410.914 171.125 412.828C171.125 414.742 171.594 416.507 172.531 418.121C173.482 419.736 174.764 421.018 176.379 421.969C177.993 422.906 179.758 423.375 181.672 423.375C183.456 423.375 185.116 422.958 186.652 422.125C188.189 421.292 189.439 420.165 190.402 418.746L191.555 419.547C190.461 421.161 189.042 422.438 187.297 423.375C185.565 424.312 183.69 424.781 181.672 424.781C179.51 424.781 177.512 424.247 175.676 423.18C173.84 422.112 172.388 420.66 171.32 418.824C170.253 416.988 169.719 414.99 169.719 412.828C169.719 410.667 170.253 408.668 171.32 406.832C172.388 404.996 173.84 403.544 175.676 402.477C177.512 401.409 179.51 400.875 181.672 400.875C183.69 400.875 185.565 401.344 187.297 402.281C189.042 403.219 190.461 404.495 191.555 406.109ZM193.898 404.547L192.727 405.309C191.503 403.512 189.914 402.092 187.961 401.051C186.021 399.996 183.924 399.469 181.672 399.469C179.862 399.469 178.13 399.82 176.477 400.523C174.823 401.227 173.397 402.177 172.199 403.375C171.014 404.56 170.07 405.979 169.367 407.633C168.664 409.286 168.312 411.018 168.312 412.828C168.312 414.638 168.664 416.37 169.367 418.023C170.07 419.677 171.014 421.103 172.199 422.301C173.397 423.486 174.823 424.43 176.477 425.133C178.13 425.836 179.862 426.188 181.672 426.188C183.938 426.188 186.04 425.66 187.98 424.605C189.921 423.551 191.503 422.125 192.727 420.328L193.859 421.168C192.505 423.147 190.754 424.716 188.605 425.875C186.47 427.021 184.159 427.594 181.672 427.594C179.003 427.594 176.535 426.936 174.27 425.621C172.004 424.293 170.207 422.496 168.879 420.23C167.564 417.965 166.906 415.497 166.906 412.828C166.906 410.159 167.564 407.691 168.879 405.426C170.207 403.16 172.004 401.37 174.27 400.055C176.535 398.727 179.003 398.062 181.672 398.062C184.172 398.062 186.496 398.648 188.645 399.82C190.793 400.979 192.544 402.555 193.898 404.547ZM196.203 402.945L195.031 403.707C193.547 401.533 191.626 399.814 189.27 398.551C186.926 397.288 184.393 396.656 181.672 396.656C179.484 396.656 177.388 397.086 175.383 397.945C173.391 398.792 171.672 399.938 170.227 401.383C168.781 402.828 167.629 404.553 166.77 406.559C165.923 408.551 165.5 410.641 165.5 412.828C165.5 415.016 165.923 417.112 166.77 419.117C167.629 421.109 168.781 422.828 170.227 424.273C171.672 425.719 173.391 426.871 175.383 427.73C177.388 428.577 179.484 429 181.672 429C184.393 429 186.932 428.362 189.289 427.086C191.646 425.81 193.566 424.085 195.051 421.91L196.184 422.77C194.569 425.113 192.486 426.975 189.934 428.355C187.382 429.723 184.628 430.406 181.672 430.406C179.289 430.406 177.01 429.938 174.836 429C172.674 428.076 170.806 426.832 169.23 425.27C167.668 423.694 166.418 421.826 165.48 419.664C164.556 417.49 164.094 415.211 164.094 412.828C164.094 410.445 164.556 408.173 165.48 406.012C166.418 403.837 167.668 401.969 169.23 400.406C170.806 398.831 172.674 397.581 174.836 396.656C177.01 395.719 179.289 395.25 181.672 395.25C184.641 395.25 187.401 395.94 189.953 397.32C192.505 398.701 194.589 400.576 196.203 402.945ZM227.062 400.875H228.469V429H227.062V400.875ZM198.918 400.875H200.324V429H198.918V400.875ZM224.25 400.875H225.656V429H224.25V400.875ZM221.438 400.875H222.844V429H221.438V400.875ZM218.625 400.875H220.031V429H218.625V417.75H208.762V429H207.355V400.875H208.762V410.719H218.625V400.875ZM204.543 400.875H205.949V429H204.543V400.875ZM201.73 400.875H203.137V429H201.73V400.875ZM218.625 416.344V414.938H208.762V416.344H218.625ZM218.625 413.531V412.125H208.762V413.531H218.625ZM252.121 415.133C252.121 413.466 251.607 412.177 250.578 411.266C249.549 410.354 248.189 409.898 246.496 409.898C245.064 409.898 243.833 410.393 242.805 411.383C241.776 412.372 241.262 413.557 241.262 414.938C241.262 415.719 241.366 416.422 241.574 417.047C241.783 417.659 242.062 418.173 242.414 418.59C242.779 418.993 243.208 419.332 243.703 419.605C244.198 419.866 244.712 420.055 245.246 420.172C245.793 420.289 246.372 420.348 246.984 420.348C248.469 420.348 249.823 419.983 251.047 419.254V420.66C249.784 421.324 248.423 421.656 246.965 421.656C246.027 421.656 245.142 421.533 244.309 421.285C243.488 421.025 242.74 420.641 242.062 420.133C241.385 419.612 240.845 418.909 240.441 418.023C240.051 417.125 239.855 416.096 239.855 414.938C239.855 413.141 240.487 411.617 241.75 410.367C243.013 409.117 244.595 408.492 246.496 408.492C248.592 408.492 250.285 409.085 251.574 410.27C252.876 411.441 253.527 413.062 253.527 415.133V429H252.121V415.133ZM256.34 415.133V429H254.934V415.133C254.934 412.672 254.146 410.719 252.57 409.273C250.995 407.815 248.97 407.086 246.496 407.086C244.204 407.086 242.29 407.848 240.754 409.371C239.217 410.895 238.449 412.75 238.449 414.938C238.449 416.266 238.677 417.457 239.133 418.512C239.602 419.566 240.233 420.413 241.027 421.051C241.822 421.689 242.707 422.177 243.684 422.516C244.673 422.841 245.715 423.004 246.809 423.004C248.293 423.004 249.706 422.659 251.047 421.969V423.453C249.641 424.039 248.221 424.332 246.789 424.332C245.5 424.332 244.276 424.137 243.117 423.746C241.958 423.342 240.923 422.763 240.012 422.008C239.1 421.24 238.378 420.25 237.844 419.039C237.31 417.815 237.043 416.448 237.043 414.938C237.043 412.372 237.948 410.191 239.758 408.395C241.581 406.585 243.827 405.68 246.496 405.68C248.371 405.68 250.051 406.064 251.535 406.832C253.02 407.587 254.191 408.688 255.051 410.133C255.91 411.578 256.34 413.245 256.34 415.133ZM259.152 415.133V429H257.746V415.133C257.746 412.984 257.251 411.083 256.262 409.43C255.285 407.763 253.944 406.487 252.238 405.602C250.533 404.716 248.618 404.273 246.496 404.273C244.478 404.273 242.635 404.755 240.969 405.719C239.302 406.669 237.993 407.958 237.043 409.586C236.105 411.214 235.637 412.997 235.637 414.938C235.637 416.604 235.943 418.128 236.555 419.508C237.167 420.875 237.987 422.001 239.016 422.887C240.057 423.772 241.236 424.462 242.551 424.957C243.879 425.439 245.266 425.68 246.711 425.68C248.182 425.68 249.628 425.374 251.047 424.762V426.188C249.562 426.747 248.104 427.027 246.672 427.027C244.419 427.027 242.349 426.52 240.461 425.504C238.573 424.488 237.062 423.049 235.93 421.188C234.797 419.326 234.23 417.242 234.23 414.938C234.23 413.297 234.543 411.734 235.168 410.25C235.806 408.766 236.665 407.483 237.746 406.402C238.827 405.322 240.129 404.462 241.652 403.824C243.176 403.186 244.79 402.867 246.496 402.867C248.879 402.867 251.027 403.375 252.941 404.391C254.868 405.406 256.385 406.852 257.492 408.727C258.599 410.602 259.152 412.737 259.152 415.133ZM261.965 415.133V429H260.559V415.133C260.559 412.477 259.94 410.107 258.703 408.023C257.466 405.927 255.78 404.312 253.645 403.18C251.509 402.034 249.126 401.461 246.496 401.461C243.97 401.461 241.659 402.066 239.562 403.277C237.466 404.488 235.819 406.129 234.621 408.199C233.423 410.257 232.824 412.503 232.824 414.938C232.824 416.539 233.078 418.062 233.586 419.508C234.107 420.94 234.81 422.197 235.695 423.277C236.594 424.345 237.622 425.27 238.781 426.051C239.953 426.832 241.21 427.424 242.551 427.828C243.905 428.232 245.279 428.434 246.672 428.434C248.208 428.434 249.667 428.141 251.047 427.555V429C249.602 429.508 248.117 429.762 246.594 429.762C245.018 429.762 243.482 429.54 241.984 429.098C240.5 428.655 239.12 428.004 237.844 427.145C236.581 426.272 235.467 425.25 234.504 424.078C233.54 422.893 232.785 421.513 232.238 419.938C231.691 418.362 231.418 416.695 231.418 414.938C231.418 412.919 231.796 410.999 232.551 409.176C233.319 407.34 234.361 405.758 235.676 404.43C237.004 403.089 238.605 402.027 240.48 401.246C242.368 400.452 244.374 400.055 246.496 400.055C248.658 400.055 250.689 400.419 252.59 401.148C254.491 401.878 256.132 402.893 257.512 404.195C258.892 405.484 259.979 407.073 260.773 408.961C261.568 410.849 261.965 412.906 261.965 415.133ZM270.422 408.668H271.828V429H270.422V408.668ZM264.797 402.281V400.875H285.891V402.281H264.797ZM264.797 405.094V403.688H285.891V405.094H264.797ZM264.797 407.906V406.5H285.891V407.906H264.797ZM278.859 408.668H280.266V429H278.859V408.668ZM276.047 408.668H277.453V429H276.047V408.668ZM273.234 408.668H274.641V429H273.234V408.668ZM302.59 419.059L301.926 421.832L295.246 396.656H296.691L302.59 419.059ZM304.055 413.648L303.332 416.344L298.156 396.656H299.582L304.055 413.648ZM305.52 408.043L304.777 410.777L301.047 396.656H302.512L305.52 408.043ZM311.086 429H309.621L318.176 396.695L318.156 396.656H319.641V396.695L323.449 409.82L326.945 396.656H328.41L319.836 429H318.371L314.543 415.895L311.086 429ZM308.156 429H306.711L315.266 396.656H316.711L308.156 429ZM305.246 429H303.801L312.375 396.656H313.801L305.246 429ZM328.586 429H327.121L335.676 396.656H337.141L328.586 429ZM325.656 429H324.211L332.766 396.656H334.211L325.656 429ZM322.746 429H321.301L329.875 396.656H331.301L322.746 429ZM301.613 426.227L309.445 396.656H310.91L302.336 429H300.871L292.316 396.656H293.781L301.613 426.227ZM315.285 413.141L319.074 426.344L319.816 423.551L316.008 410.387L315.285 413.141ZM316.73 407.633L320.539 420.797L321.281 418.043L317.473 404.859L316.73 407.633ZM318.176 402.164L322.004 415.328L322.727 412.555L318.938 399.352L318.176 402.164ZM348.254 400.875H349.66V429H348.254V400.875ZM345.441 400.875H346.848V429H345.441V400.875ZM342.629 400.875H344.035V429H342.629V400.875ZM339.816 400.875H341.223V429H339.816V400.875ZM358.312 408.668H359.719V429H358.312V408.668ZM352.688 402.281V400.875H373.781V402.281H352.688ZM352.688 405.094V403.688H373.781V405.094H352.688ZM352.688 407.906V406.5H373.781V407.906H352.688ZM366.75 408.668H368.156V429H366.75V408.668ZM363.938 408.668H365.344V429H363.938V408.668ZM361.125 408.668H362.531V429H361.125V408.668ZM405.031 400.875H406.438V429H405.031V400.875ZM376.887 400.875H378.293V429H376.887V400.875ZM402.219 400.875H403.625V429H402.219V400.875ZM399.406 400.875H400.812V429H399.406V400.875ZM396.594 400.875H398V429H396.594V417.75H386.73V429H385.324V400.875H386.73V410.719H396.594V400.875ZM382.512 400.875H383.918V429H382.512V400.875ZM379.699 400.875H381.105V429H379.699V400.875ZM396.594 416.344V414.938H386.73V416.344H396.594ZM396.594 413.531V412.125H386.73V413.531H396.594ZM421.496 429H420.09V396.656H421.496V429ZM418.684 429H417.277V396.656H418.684V429ZM415.871 429H414.465V396.656H415.871V429ZM424.309 421.969H439.27V423.375H424.309V424.781H439.27V426.188H424.309V427.594H439.27V429H422.902V396.656H439.27V398.062H424.309V399.469H439.27V400.875H424.309V402.281H439.27V403.688H424.309V409.312H431.984V410.719H424.309V412.125H431.984V413.531H424.309V414.938H431.984V416.344H424.309V421.969ZM464.934 417.652L463.527 415.094V400.875H464.934V417.652ZM467.746 422.516L466.34 420.133V400.875H467.746V422.516ZM448.371 412.223L449.777 414.781V429H448.371V412.223ZM445.559 407.164L446.965 409.742V429H445.559V407.164ZM446.047 400.875H447.688L463.977 429H462.336L446.047 400.875ZM449.367 400.875H451.027L467.297 429H465.617L449.367 400.875ZM452.668 400.875H454.309L469.152 426.559V400.875H470.559V429H468.898L452.668 400.875ZM444.152 403.297V429H442.746V400.875H444.426L460.656 429H459.035L444.152 403.297ZM479.211 408.668H480.617V429H479.211V408.668ZM473.586 402.281V400.875H494.68V402.281H473.586ZM473.586 405.094V403.688H494.68V405.094H473.586ZM473.586 407.906V406.5H494.68V407.906H473.586ZM487.648 408.668H489.055V429H487.648V408.668ZM484.836 408.668H486.242V429H484.836V408.668ZM482.023 408.668H483.43V429H482.023V408.668ZM525.93 400.875H527.336V429H525.93V400.875ZM497.785 400.875H499.191V429H497.785V400.875ZM523.117 400.875H524.523V429H523.117V400.875ZM520.305 400.875H521.711V429H520.305V400.875ZM517.492 400.875H518.898V429H517.492V417.75H507.629V429H506.223V400.875H507.629V410.719H517.492V400.875ZM503.41 400.875H504.816V429H503.41V400.875ZM500.598 400.875H502.004V429H500.598V400.875ZM517.492 416.344V414.938H507.629V416.344H517.492ZM517.492 413.531V412.125H507.629V413.531H517.492ZM549.484 416.539V400.875H550.891V416.539C550.891 418.023 550.318 419.299 549.172 420.367C548.039 421.435 546.672 421.969 545.07 421.969C543.469 421.969 542.095 421.435 540.949 420.367C539.816 419.299 539.25 418.023 539.25 416.539V400.875H540.656V416.539C540.656 417.646 541.086 418.596 541.945 419.391C542.818 420.172 543.859 420.562 545.07 420.562C546.281 420.562 547.316 420.172 548.176 419.391C549.048 418.596 549.484 417.646 549.484 416.539ZM552.297 416.539V400.875H553.703V416.539C553.703 418.818 552.857 420.764 551.164 422.379C549.471 423.98 547.44 424.781 545.07 424.781C542.701 424.781 540.669 423.98 538.977 422.379C537.284 420.764 536.438 418.818 536.438 416.539V400.875H537.844V416.539C537.844 418.427 538.547 420.042 539.953 421.383C541.372 422.711 543.078 423.375 545.07 423.375C547.049 423.375 548.749 422.711 550.168 421.383C551.587 420.042 552.297 418.427 552.297 416.539ZM555.109 416.539V400.875H556.516V416.539C556.516 418.531 556.001 420.38 554.973 422.086C553.944 423.779 552.551 425.12 550.793 426.109C549.035 427.099 547.128 427.594 545.07 427.594C543.013 427.594 541.105 427.099 539.348 426.109C537.59 425.12 536.197 423.779 535.168 422.086C534.139 420.38 533.625 418.531 533.625 416.539V400.875H535.031V416.539C535.031 418.271 535.48 419.879 536.379 421.363C537.277 422.848 538.495 424.026 540.031 424.898C541.581 425.758 543.26 426.188 545.07 426.188C546.88 426.188 548.553 425.758 550.09 424.898C551.639 424.026 552.863 422.848 553.762 421.363C554.66 419.879 555.109 418.271 555.109 416.539ZM557.922 416.539V400.875H559.328V416.539C559.328 418.414 558.951 420.211 558.195 421.93C557.44 423.635 556.424 425.107 555.148 426.344C553.872 427.581 552.355 428.564 550.598 429.293C548.84 430.035 546.997 430.406 545.07 430.406C543.143 430.406 541.301 430.035 539.543 429.293C537.785 428.564 536.268 427.581 534.992 426.344C533.716 425.107 532.701 423.635 531.945 421.93C531.19 420.211 530.812 418.414 530.812 416.539V400.875H532.219V416.539C532.219 418.779 532.792 420.855 533.938 422.77C535.096 424.684 536.659 426.201 538.625 427.32C540.604 428.44 542.753 429 545.07 429C547.388 429 549.53 428.44 551.496 427.32C553.475 426.201 555.038 424.684 556.184 422.77C557.342 420.855 557.922 418.779 557.922 416.539ZM575.793 415.621H573.566C570.832 415.621 568.729 415.068 567.258 413.961C565.786 412.841 565.051 411.305 565.051 409.352C565.051 407.529 565.917 406.012 567.648 404.801C569.38 403.577 571.809 402.965 574.934 402.965C577.017 402.965 578.957 403.251 580.754 403.824C582.564 404.397 584.068 405.204 585.266 406.246L584.172 407.125C583.104 406.253 581.763 405.576 580.148 405.094C578.534 404.612 576.796 404.371 574.934 404.371C572.186 404.371 570.083 404.84 568.625 405.777C567.18 406.715 566.457 407.906 566.457 409.352C566.457 410.914 567.049 412.118 568.234 412.965C569.432 413.798 571.21 414.215 573.566 414.215H575.715C578.488 414.215 580.611 414.775 582.082 415.895C583.566 417.001 584.309 418.531 584.309 420.484C584.309 422.307 583.443 423.831 581.711 425.055C579.979 426.266 577.551 426.871 574.426 426.871C572.342 426.871 570.396 426.585 568.586 426.012C566.789 425.439 565.292 424.632 564.094 423.59L565.188 422.711C566.255 423.583 567.596 424.26 569.211 424.742C570.826 425.224 572.564 425.465 574.426 425.465C577.173 425.465 579.27 424.996 580.715 424.059C582.173 423.121 582.902 421.93 582.902 420.484C582.902 418.922 582.303 417.724 581.105 416.891C579.921 416.044 578.15 415.621 575.793 415.621ZM575.793 418.434H573.566C569.947 418.434 567.154 417.613 565.188 415.973C563.221 414.319 562.238 412.112 562.238 409.352C562.238 408.089 562.518 406.904 563.078 405.797C563.638 404.69 564.439 403.72 565.48 402.887C566.535 402.04 567.876 401.376 569.504 400.895C571.132 400.4 572.941 400.152 574.934 400.152C577.447 400.152 579.797 400.536 581.984 401.305C584.172 402.06 585.995 403.121 587.453 404.488L586.32 405.328C584.992 404.13 583.332 403.206 581.34 402.555C579.348 401.891 577.212 401.559 574.934 401.559C571.418 401.559 568.658 402.301 566.652 403.785C564.647 405.27 563.645 407.125 563.645 409.352C563.645 411.708 564.504 413.577 566.223 414.957C567.941 416.337 570.389 417.027 573.566 417.027H575.715C579.569 417.027 581.496 418.18 581.496 420.484C581.496 421.526 580.904 422.385 579.719 423.062C578.547 423.727 576.783 424.059 574.426 424.059C572.772 424.059 571.236 423.87 569.816 423.492C568.397 423.102 567.225 422.548 566.301 421.832L567.414 420.973C569.042 422.092 571.379 422.652 574.426 422.652C576.379 422.652 577.811 422.451 578.723 422.047C579.634 421.643 580.09 421.122 580.09 420.484C580.09 419.742 579.771 419.215 579.133 418.902C578.495 418.59 577.382 418.434 575.793 418.434ZM575.793 412.809H573.566C569.764 412.809 567.863 411.656 567.863 409.352C567.863 408.31 568.449 407.457 569.621 406.793C570.806 406.116 572.577 405.777 574.934 405.777C576.587 405.777 578.124 405.973 579.543 406.363C580.962 406.741 582.134 407.288 583.059 408.004L581.945 408.863C580.318 407.743 577.98 407.184 574.934 407.184C572.98 407.184 571.548 407.385 570.637 407.789C569.725 408.193 569.27 408.714 569.27 409.352C569.27 410.094 569.589 410.621 570.227 410.934C570.865 411.246 571.978 411.402 573.566 411.402H575.793C579.413 411.402 582.206 412.229 584.172 413.883C586.138 415.523 587.121 417.724 587.121 420.484C587.121 421.747 586.841 422.932 586.281 424.039C585.721 425.146 584.914 426.122 583.859 426.969C582.818 427.802 581.483 428.466 579.855 428.961C578.228 429.443 576.418 429.684 574.426 429.684C571.913 429.684 569.562 429.306 567.375 428.551C565.188 427.783 563.365 426.715 561.906 425.348L563.039 424.508C564.367 425.706 566.027 426.637 568.02 427.301C570.012 427.952 572.147 428.277 574.426 428.277C577.941 428.277 580.702 427.535 582.707 426.051C584.712 424.566 585.715 422.711 585.715 420.484C585.715 418.128 584.855 416.259 583.137 414.879C581.418 413.499 578.97 412.809 575.793 412.809ZM598.645 400.875H600.051V429H598.645V400.875ZM595.832 400.875H597.238V429H595.832V400.875ZM593.02 400.875H594.426V429H593.02V400.875ZM590.207 400.875H591.613V429H590.207V400.875ZM623.684 415.133C623.684 413.466 623.169 412.177 622.141 411.266C621.112 410.354 619.751 409.898 618.059 409.898C616.626 409.898 615.396 410.393 614.367 411.383C613.339 412.372 612.824 413.557 612.824 414.938C612.824 415.719 612.928 416.422 613.137 417.047C613.345 417.659 613.625 418.173 613.977 418.59C614.341 418.993 614.771 419.332 615.266 419.605C615.76 419.866 616.275 420.055 616.809 420.172C617.355 420.289 617.935 420.348 618.547 420.348C620.031 420.348 621.385 419.983 622.609 419.254V420.66C621.346 421.324 619.986 421.656 618.527 421.656C617.59 421.656 616.704 421.533 615.871 421.285C615.051 421.025 614.302 420.641 613.625 420.133C612.948 419.612 612.408 418.909 612.004 418.023C611.613 417.125 611.418 416.096 611.418 414.938C611.418 413.141 612.049 411.617 613.312 410.367C614.576 409.117 616.158 408.492 618.059 408.492C620.155 408.492 621.848 409.085 623.137 410.27C624.439 411.441 625.09 413.062 625.09 415.133V429H623.684V415.133ZM627.902 415.133V429H626.496V415.133C626.496 412.672 625.708 410.719 624.133 409.273C622.557 407.815 620.533 407.086 618.059 407.086C615.767 407.086 613.853 407.848 612.316 409.371C610.78 410.895 610.012 412.75 610.012 414.938C610.012 416.266 610.24 417.457 610.695 418.512C611.164 419.566 611.796 420.413 612.59 421.051C613.384 421.689 614.27 422.177 615.246 422.516C616.236 422.841 617.277 423.004 618.371 423.004C619.855 423.004 621.268 422.659 622.609 421.969V423.453C621.203 424.039 619.784 424.332 618.352 424.332C617.062 424.332 615.839 424.137 614.68 423.746C613.521 423.342 612.486 422.763 611.574 422.008C610.663 421.24 609.94 420.25 609.406 419.039C608.872 417.815 608.605 416.448 608.605 414.938C608.605 412.372 609.51 410.191 611.32 408.395C613.143 406.585 615.389 405.68 618.059 405.68C619.934 405.68 621.613 406.064 623.098 406.832C624.582 407.587 625.754 408.688 626.613 410.133C627.473 411.578 627.902 413.245 627.902 415.133ZM630.715 415.133V429H629.309V415.133C629.309 412.984 628.814 411.083 627.824 409.43C626.848 407.763 625.507 406.487 623.801 405.602C622.095 404.716 620.181 404.273 618.059 404.273C616.04 404.273 614.198 404.755 612.531 405.719C610.865 406.669 609.556 407.958 608.605 409.586C607.668 411.214 607.199 412.997 607.199 414.938C607.199 416.604 607.505 418.128 608.117 419.508C608.729 420.875 609.549 422.001 610.578 422.887C611.62 423.772 612.798 424.462 614.113 424.957C615.441 425.439 616.828 425.68 618.273 425.68C619.745 425.68 621.19 425.374 622.609 424.762V426.188C621.125 426.747 619.667 427.027 618.234 427.027C615.982 427.027 613.911 426.52 612.023 425.504C610.135 424.488 608.625 423.049 607.492 421.188C606.359 419.326 605.793 417.242 605.793 414.938C605.793 413.297 606.105 411.734 606.73 410.25C607.368 408.766 608.228 407.483 609.309 406.402C610.389 405.322 611.691 404.462 613.215 403.824C614.738 403.186 616.353 402.867 618.059 402.867C620.441 402.867 622.59 403.375 624.504 404.391C626.431 405.406 627.948 406.852 629.055 408.727C630.161 410.602 630.715 412.737 630.715 415.133ZM633.527 415.133V429H632.121V415.133C632.121 412.477 631.503 410.107 630.266 408.023C629.029 405.927 627.342 404.312 625.207 403.18C623.072 402.034 620.689 401.461 618.059 401.461C615.533 401.461 613.221 402.066 611.125 403.277C609.029 404.488 607.382 406.129 606.184 408.199C604.986 410.257 604.387 412.503 604.387 414.938C604.387 416.539 604.641 418.062 605.148 419.508C605.669 420.94 606.372 422.197 607.258 423.277C608.156 424.345 609.185 425.27 610.344 426.051C611.516 426.832 612.772 427.424 614.113 427.828C615.467 428.232 616.841 428.434 618.234 428.434C619.771 428.434 621.229 428.141 622.609 427.555V429C621.164 429.508 619.68 429.762 618.156 429.762C616.581 429.762 615.044 429.54 613.547 429.098C612.062 428.655 610.682 428.004 609.406 427.145C608.143 426.272 607.03 425.25 606.066 424.078C605.103 422.893 604.348 421.513 603.801 419.938C603.254 418.362 602.98 416.695 602.98 414.938C602.98 412.919 603.358 410.999 604.113 409.176C604.882 407.34 605.923 405.758 607.238 404.43C608.566 403.089 610.168 402.027 612.043 401.246C613.931 400.452 615.936 400.055 618.059 400.055C620.22 400.055 622.251 400.419 624.152 401.148C626.053 401.878 627.694 402.893 629.074 404.195C630.454 405.484 631.542 407.073 632.336 408.961C633.13 410.849 633.527 412.906 633.527 415.133ZM649.934 415.621H647.707C644.973 415.621 642.87 415.068 641.398 413.961C639.927 412.841 639.191 411.305 639.191 409.352C639.191 407.529 640.057 406.012 641.789 404.801C643.521 403.577 645.949 402.965 649.074 402.965C651.158 402.965 653.098 403.251 654.895 403.824C656.704 404.397 658.208 405.204 659.406 406.246L658.312 407.125C657.245 406.253 655.904 405.576 654.289 405.094C652.674 404.612 650.936 404.371 649.074 404.371C646.327 404.371 644.224 404.84 642.766 405.777C641.32 406.715 640.598 407.906 640.598 409.352C640.598 410.914 641.19 412.118 642.375 412.965C643.573 413.798 645.35 414.215 647.707 414.215H649.855C652.629 414.215 654.751 414.775 656.223 415.895C657.707 417.001 658.449 418.531 658.449 420.484C658.449 422.307 657.583 423.831 655.852 425.055C654.12 426.266 651.691 426.871 648.566 426.871C646.483 426.871 644.536 426.585 642.727 426.012C640.93 425.439 639.432 424.632 638.234 423.59L639.328 422.711C640.396 423.583 641.737 424.26 643.352 424.742C644.966 425.224 646.704 425.465 648.566 425.465C651.314 425.465 653.41 424.996 654.855 424.059C656.314 423.121 657.043 421.93 657.043 420.484C657.043 418.922 656.444 417.724 655.246 416.891C654.061 416.044 652.29 415.621 649.934 415.621ZM649.934 418.434H647.707C644.087 418.434 641.294 417.613 639.328 415.973C637.362 414.319 636.379 412.112 636.379 409.352C636.379 408.089 636.659 406.904 637.219 405.797C637.779 404.69 638.579 403.72 639.621 402.887C640.676 402.04 642.017 401.376 643.645 400.895C645.272 400.4 647.082 400.152 649.074 400.152C651.587 400.152 653.938 400.536 656.125 401.305C658.312 402.06 660.135 403.121 661.594 404.488L660.461 405.328C659.133 404.13 657.473 403.206 655.48 402.555C653.488 401.891 651.353 401.559 649.074 401.559C645.559 401.559 642.798 402.301 640.793 403.785C638.788 405.27 637.785 407.125 637.785 409.352C637.785 411.708 638.645 413.577 640.363 414.957C642.082 416.337 644.53 417.027 647.707 417.027H649.855C653.71 417.027 655.637 418.18 655.637 420.484C655.637 421.526 655.044 422.385 653.859 423.062C652.688 423.727 650.923 424.059 648.566 424.059C646.913 424.059 645.376 423.87 643.957 423.492C642.538 423.102 641.366 422.548 640.441 421.832L641.555 420.973C643.182 422.092 645.52 422.652 648.566 422.652C650.52 422.652 651.952 422.451 652.863 422.047C653.775 421.643 654.23 421.122 654.23 420.484C654.23 419.742 653.911 419.215 653.273 418.902C652.635 418.59 651.522 418.434 649.934 418.434ZM649.934 412.809H647.707C643.905 412.809 642.004 411.656 642.004 409.352C642.004 408.31 642.59 407.457 643.762 406.793C644.947 406.116 646.717 405.777 649.074 405.777C650.728 405.777 652.264 405.973 653.684 406.363C655.103 406.741 656.275 407.288 657.199 408.004L656.086 408.863C654.458 407.743 652.121 407.184 649.074 407.184C647.121 407.184 645.689 407.385 644.777 407.789C643.866 408.193 643.41 408.714 643.41 409.352C643.41 410.094 643.729 410.621 644.367 410.934C645.005 411.246 646.118 411.402 647.707 411.402H649.934C653.553 411.402 656.346 412.229 658.312 413.883C660.279 415.523 661.262 417.724 661.262 420.484C661.262 421.747 660.982 422.932 660.422 424.039C659.862 425.146 659.055 426.122 658 426.969C656.958 427.802 655.624 428.466 653.996 428.961C652.368 429.443 650.559 429.684 648.566 429.684C646.053 429.684 643.703 429.306 641.516 428.551C639.328 427.783 637.505 426.715 636.047 425.348L637.18 424.508C638.508 425.706 640.168 426.637 642.16 427.301C644.152 427.952 646.288 428.277 648.566 428.277C652.082 428.277 654.842 427.535 656.848 426.051C658.853 424.566 659.855 422.711 659.855 420.484C659.855 418.128 658.996 416.259 657.277 414.879C655.559 413.499 653.111 412.809 649.934 412.809ZM682.316 411.422V429H680.91V411.422C680.91 411.044 680.845 410.725 680.715 410.465C680.598 410.191 680.441 409.983 680.246 409.84C680.051 409.697 679.79 409.586 679.465 409.508C679.152 409.417 678.846 409.365 678.547 409.352C678.247 409.326 677.876 409.312 677.434 409.312C676.991 409.312 676.62 409.326 676.32 409.352C676.021 409.365 675.708 409.417 675.383 409.508C675.07 409.586 674.816 409.697 674.621 409.84C674.426 409.983 674.263 410.191 674.133 410.465C674.016 410.725 673.957 411.044 673.957 411.422V429H672.551V411.422C672.551 409.078 674.178 407.906 677.434 407.906C680.689 407.906 682.316 409.078 682.316 411.422ZM685.129 411.422V429H683.723V411.422C683.723 409.768 683.137 408.538 681.965 407.73C680.806 406.91 679.296 406.5 677.434 406.5C675.572 406.5 674.055 406.91 672.883 407.73C671.724 408.538 671.145 409.768 671.145 411.422V429H669.738V411.422C669.738 410.055 670.09 408.883 670.793 407.906C671.496 406.93 672.414 406.22 673.547 405.777C674.693 405.322 675.988 405.094 677.434 405.094C678.879 405.094 680.168 405.322 681.301 405.777C682.447 406.22 683.371 406.93 684.074 407.906C684.777 408.883 685.129 410.055 685.129 411.422ZM687.941 411.422V429H686.535V411.422C686.535 410.198 686.294 409.091 685.812 408.102C685.344 407.112 684.693 406.298 683.859 405.66C683.026 405.022 682.062 404.534 680.969 404.195C679.875 403.857 678.697 403.688 677.434 403.688C676.171 403.688 674.992 403.857 673.898 404.195C672.805 404.534 671.841 405.022 671.008 405.66C670.174 406.298 669.517 407.112 669.035 408.102C668.566 409.091 668.332 410.198 668.332 411.422V429H666.926V411.422C666.926 410.003 667.199 408.714 667.746 407.555C668.306 406.396 669.061 405.439 670.012 404.684C670.962 403.915 672.076 403.323 673.352 402.906C674.628 402.49 675.988 402.281 677.434 402.281C678.879 402.281 680.24 402.49 681.516 402.906C682.792 403.323 683.905 403.915 684.855 404.684C685.806 405.439 686.555 406.396 687.102 407.555C687.661 408.714 687.941 410.003 687.941 411.422ZM690.754 429H689.348V411.422C689.348 410.003 689.029 408.642 688.391 407.34C687.766 406.038 686.919 404.918 685.852 403.98C684.784 403.03 683.514 402.275 682.043 401.715C680.572 401.155 679.035 400.875 677.434 400.875C675.233 400.875 673.234 401.292 671.438 402.125C669.654 402.945 668.221 404.169 667.141 405.797C666.06 407.411 665.52 409.286 665.52 411.422V429H664.113V411.422C664.113 409.625 664.465 407.971 665.168 406.461C665.871 404.951 666.822 403.688 668.02 402.672C669.23 401.656 670.643 400.868 672.258 400.309C673.885 399.749 675.611 399.469 677.434 399.469C680.663 399.469 683.462 400.283 685.832 401.91C688.202 400.283 691.001 399.469 694.23 399.469C696.053 399.469 697.772 399.749 699.387 400.309C701.014 400.868 702.427 401.656 703.625 402.672C704.836 403.688 705.793 404.951 706.496 406.461C707.199 407.971 707.551 409.625 707.551 411.422V429H706.145V411.422C706.145 409.299 705.604 407.431 704.523 405.816C703.443 404.189 702.004 402.958 700.207 402.125C698.423 401.292 696.431 400.875 694.23 400.875C691.47 400.875 689.061 401.526 687.004 402.828C687.303 403.089 687.635 403.427 688 403.844C689.784 402.802 691.861 402.281 694.23 402.281C695.676 402.281 697.036 402.49 698.312 402.906C699.589 403.323 700.702 403.915 701.652 404.684C702.603 405.439 703.352 406.396 703.898 407.555C704.458 408.714 704.738 410.003 704.738 411.422V429H703.332V411.422C703.332 410.198 703.091 409.091 702.609 408.102C702.141 407.112 701.49 406.298 700.656 405.66C699.823 405.022 698.859 404.534 697.766 404.195C696.672 403.857 695.493 403.688 694.23 403.688C692.16 403.688 690.37 404.111 688.859 404.957C689.094 405.322 689.328 405.725 689.562 406.168C690.839 405.452 692.395 405.094 694.23 405.094C695.676 405.094 696.965 405.322 698.098 405.777C699.243 406.22 700.168 406.93 700.871 407.906C701.574 408.883 701.926 410.055 701.926 411.422V429H700.52V411.422C700.52 409.768 699.934 408.538 698.762 407.73C697.603 406.91 696.092 406.5 694.23 406.5C692.538 406.5 691.164 406.812 690.109 407.438C690.279 407.932 690.409 408.401 690.5 408.844C691.32 408.219 692.564 407.906 694.23 407.906C697.486 407.906 699.113 409.078 699.113 411.422V429H697.707V411.422C697.707 411.044 697.642 410.725 697.512 410.465C697.395 410.191 697.238 409.983 697.043 409.84C696.848 409.697 696.587 409.586 696.262 409.508C695.949 409.417 695.643 409.365 695.344 409.352C695.044 409.326 694.673 409.312 694.23 409.312C693.788 409.312 693.417 409.326 693.117 409.352C692.818 409.365 692.505 409.417 692.18 409.508C691.867 409.586 691.613 409.697 691.418 409.84C691.223 409.983 691.06 410.191 690.93 410.465C690.812 410.725 690.754 411.044 690.754 411.422V429Z" fill="#29200D"/>
<line x1="538.009" y1="306.5" x2="322.009" y2="310.5" stroke="black"/>
<path d="M325.383 181.086C325.799 181.62 326.086 182.16 326.242 182.707C326.411 183.254 326.626 184.647 326.887 186.887C327.16 189.113 327.44 191.783 327.727 194.895C328.013 198.007 328.247 200.415 328.43 202.121C328.612 203.827 328.898 205.773 329.289 207.961C328.352 208.26 327.219 208.41 325.891 208.41C324.576 208.41 323.651 208.26 323.117 207.961C322.57 206.398 322.16 203.306 321.887 198.684L313.918 198.312C312.707 204.823 310.604 208.267 307.609 208.645C307.479 208.658 307.355 208.664 307.238 208.664C306.327 208.664 305.493 208.391 304.738 207.844C303.983 207.284 303.605 206.613 303.605 205.832C304.686 205.103 305.682 204.087 306.594 202.785C307.518 201.483 308.28 200.09 308.879 198.605C309.491 197.108 310.018 195.526 310.461 193.859C311.268 190.721 311.672 187.805 311.672 185.109C311.672 184.185 311.561 183.501 311.34 183.059C311.118 182.616 310.656 182.342 309.953 182.238C309.745 181.978 309.641 181.516 309.641 180.852C309.641 180.188 309.667 179.771 309.719 179.602C313.352 179.797 318.072 179.927 323.879 179.992C324.478 180.174 324.979 180.539 325.383 181.086ZM321.672 195.715C321.607 194.335 321.535 192.596 321.457 190.5C321.379 188.404 321.327 187.108 321.301 186.613C321.275 186.105 321.236 185.63 321.184 185.188C321.132 184.732 321.079 184.406 321.027 184.211C320.975 184.016 320.891 183.84 320.773 183.684C320.617 183.462 320.22 183.312 319.582 183.234C318.957 183.156 317.499 183.117 315.207 183.117C315.207 184.823 315.109 186.932 314.914 189.445C314.732 191.958 314.549 193.931 314.367 195.363H315.109C317.349 195.363 319.536 195.48 321.672 195.715ZM352.648 192.043C352.648 194.022 351.62 195.012 349.562 195.012C348.859 195.012 348.352 194.934 348.039 194.777C347.727 194.608 347.57 194.51 347.57 194.484C347.609 194.237 347.629 193.983 347.629 193.723C347.629 192.499 347.232 191.529 346.438 190.812C345.656 190.083 344.602 189.719 343.273 189.719C341.945 189.719 340.878 190.292 340.07 191.438C339.263 192.57 338.859 194.335 338.859 196.73C338.859 199.126 339.549 201.242 340.93 203.078C342.323 204.914 343.872 205.832 345.578 205.832C347.049 205.832 348.521 205.24 349.992 204.055C350.331 203.781 350.669 203.456 351.008 203.078C351.294 203.26 351.587 203.521 351.887 203.859C352.199 204.185 352.388 204.497 352.453 204.797C351.841 205.617 350.917 206.405 349.68 207.16C347.987 208.176 346.118 208.684 344.074 208.684C342.03 208.684 340.168 208.254 338.488 207.395C336.822 206.535 335.507 205.305 334.543 203.703C333.579 202.102 333.098 200.279 333.098 198.234C333.098 194.302 334.549 191.268 337.453 189.133C339.315 187.766 341.581 187.082 344.25 187.082C346.503 187.082 348.462 187.57 350.129 188.547C350.884 188.99 351.49 189.517 351.945 190.129C352.401 190.741 352.635 191.379 352.648 192.043ZM375.422 192.043C375.422 194.022 374.393 195.012 372.336 195.012C371.633 195.012 371.125 194.934 370.812 194.777C370.5 194.608 370.344 194.51 370.344 194.484C370.383 194.237 370.402 193.983 370.402 193.723C370.402 192.499 370.005 191.529 369.211 190.812C368.43 190.083 367.375 189.719 366.047 189.719C364.719 189.719 363.651 190.292 362.844 191.438C362.036 192.57 361.633 194.335 361.633 196.73C361.633 199.126 362.323 201.242 363.703 203.078C365.096 204.914 366.646 205.832 368.352 205.832C369.823 205.832 371.294 205.24 372.766 204.055C373.104 203.781 373.443 203.456 373.781 203.078C374.068 203.26 374.361 203.521 374.66 203.859C374.973 204.185 375.161 204.497 375.227 204.797C374.615 205.617 373.69 206.405 372.453 207.16C370.76 208.176 368.892 208.684 366.848 208.684C364.803 208.684 362.941 208.254 361.262 207.395C359.595 206.535 358.28 205.305 357.316 203.703C356.353 202.102 355.871 200.279 355.871 198.234C355.871 194.302 357.323 191.268 360.227 189.133C362.089 187.766 364.354 187.082 367.023 187.082C369.276 187.082 371.236 187.57 372.902 188.547C373.658 188.99 374.263 189.517 374.719 190.129C375.174 190.741 375.409 191.379 375.422 192.043ZM384.758 199.562C385.148 201.49 385.982 203.046 387.258 204.23C388.534 205.415 390.025 206.008 391.73 206.008C393.436 206.008 395.155 205.272 396.887 203.801C397.538 204.23 397.935 204.738 398.078 205.324C396.88 206.717 395.109 207.714 392.766 208.312C391.815 208.56 390.715 208.684 389.465 208.684C388.228 208.684 386.945 208.456 385.617 208C384.289 207.557 383.098 206.906 382.043 206.047C381.001 205.188 380.174 204.061 379.562 202.668C378.951 201.262 378.645 199.706 378.645 198C378.645 196.294 378.957 194.751 379.582 193.371C380.207 191.978 381.034 190.839 382.062 189.953C384.211 188.091 386.672 187.16 389.445 187.16C391.88 187.16 393.99 187.818 395.773 189.133C396.633 189.784 397.316 190.63 397.824 191.672C398.345 192.701 398.605 193.866 398.605 195.168C398.605 197.395 397.87 198.566 396.398 198.684L384.758 199.562ZM393.352 194.582C393.352 193.033 392.922 191.822 392.062 190.949C391.203 190.077 390.077 189.641 388.684 189.641C387.29 189.641 386.236 190.298 385.52 191.613C384.803 192.915 384.445 194.725 384.445 197.043C387.688 196.691 390.617 196.32 393.234 195.93C393.312 195.461 393.352 195.012 393.352 194.582ZM403.312 201.789C403.612 201.737 404.042 201.711 404.602 201.711C405.174 201.711 405.93 201.939 406.867 202.395C406.854 202.499 406.848 202.694 406.848 202.98C406.848 203.267 406.913 203.618 407.043 204.035C407.186 204.452 407.401 204.836 407.688 205.188C408.312 205.969 409.341 206.359 410.773 206.359C412.206 206.359 413.143 205.878 413.586 204.914C413.964 204.029 413.898 203.111 413.391 202.16C413.013 201.457 412.004 200.786 410.363 200.148C410.09 200.044 409.712 199.901 409.23 199.719C404.908 198.169 402.72 195.93 402.668 193C402.668 191.672 403.039 190.552 403.781 189.641C405.188 187.935 407.564 187.082 410.91 187.082C413.111 187.082 414.966 187.538 416.477 188.449C418 189.361 418.762 190.48 418.762 191.809C418.762 193.293 418.039 194.035 416.594 194.035C415.565 194.035 414.842 193.924 414.426 193.703C414.009 193.469 413.801 193.339 413.801 193.312C413.801 193.234 413.801 193.163 413.801 193.098C413.801 190.663 412.616 189.445 410.246 189.445C409.426 189.445 408.775 189.66 408.293 190.09C407.824 190.507 407.59 191.125 407.59 191.945C407.59 192.753 407.876 193.423 408.449 193.957C409.035 194.491 410.155 195.09 411.809 195.754C413.475 196.418 414.543 196.867 415.012 197.102C417.941 198.521 419.406 200.357 419.406 202.609C419.406 204.562 418.579 206.066 416.926 207.121C415.285 208.163 413.098 208.684 410.363 208.684C408.553 208.684 407.186 208.527 406.262 208.215C405.337 207.902 404.634 207.616 404.152 207.355C403.684 207.095 403.293 206.822 402.98 206.535C402.681 206.249 402.427 205.949 402.219 205.637C401.659 204.816 401.496 203.983 401.73 203.137C401.926 202.421 402.453 201.971 403.312 201.789ZM424.328 201.789C424.628 201.737 425.057 201.711 425.617 201.711C426.19 201.711 426.945 201.939 427.883 202.395C427.87 202.499 427.863 202.694 427.863 202.98C427.863 203.267 427.928 203.618 428.059 204.035C428.202 204.452 428.417 204.836 428.703 205.188C429.328 205.969 430.357 206.359 431.789 206.359C433.221 206.359 434.159 205.878 434.602 204.914C434.979 204.029 434.914 203.111 434.406 202.16C434.029 201.457 433.02 200.786 431.379 200.148C431.105 200.044 430.728 199.901 430.246 199.719C425.923 198.169 423.736 195.93 423.684 193C423.684 191.672 424.055 190.552 424.797 189.641C426.203 187.935 428.579 187.082 431.926 187.082C434.126 187.082 435.982 187.538 437.492 188.449C439.016 189.361 439.777 190.48 439.777 191.809C439.777 193.293 439.055 194.035 437.609 194.035C436.581 194.035 435.858 193.924 435.441 193.703C435.025 193.469 434.816 193.339 434.816 193.312C434.816 193.234 434.816 193.163 434.816 193.098C434.816 190.663 433.632 189.445 431.262 189.445C430.441 189.445 429.79 189.66 429.309 190.09C428.84 190.507 428.605 191.125 428.605 191.945C428.605 192.753 428.892 193.423 429.465 193.957C430.051 194.491 431.171 195.09 432.824 195.754C434.491 196.418 435.559 196.867 436.027 197.102C438.957 198.521 440.422 200.357 440.422 202.609C440.422 204.562 439.595 206.066 437.941 207.121C436.301 208.163 434.113 208.684 431.379 208.684C429.569 208.684 428.202 208.527 427.277 208.215C426.353 207.902 425.65 207.616 425.168 207.355C424.699 207.095 424.309 206.822 423.996 206.535C423.697 206.249 423.443 205.949 423.234 205.637C422.674 204.816 422.512 203.983 422.746 203.137C422.941 202.421 423.469 201.971 424.328 201.789ZM458.82 178.078C459.589 177.427 460.422 177.102 461.32 177.102C462.219 177.102 462.961 177.382 463.547 177.941C464.133 178.488 464.426 179.263 464.426 180.266C464.426 181.268 464.048 182.115 463.293 182.805C462.538 183.482 461.672 183.82 460.695 183.82C459.732 183.82 458.97 183.521 458.41 182.922C457.863 182.323 457.59 181.555 457.59 180.617C457.59 179.68 458 178.833 458.82 178.078ZM458.293 192.355C458.293 191.366 457.948 190.78 457.258 190.598C456.815 190.454 456.19 190.35 455.383 190.285C455.292 189.895 455.246 189.602 455.246 189.406C455.246 189.198 455.253 189.035 455.266 188.918C457.141 187.863 459.491 187.336 462.316 187.336C462.772 187.336 463.111 187.342 463.332 187.355C463.697 187.928 463.951 189.048 464.094 190.715C464.198 191.47 464.25 192.609 464.25 194.133C464.25 195.656 464.198 200.292 464.094 208.039C462.648 208.286 461.444 208.41 460.48 208.41C459.53 208.41 458.723 208.286 458.059 208.039C458.293 204.901 458.41 202.095 458.41 199.621C458.41 197.134 458.371 194.712 458.293 192.355ZM484.855 203.762L485.051 196.32C485.051 194.628 484.992 193.56 484.875 193.117C484.771 192.674 484.634 192.342 484.465 192.121C484.1 191.665 483.566 191.438 482.863 191.438C482.16 191.438 481.561 191.516 481.066 191.672C480.051 192.01 478.749 192.961 477.16 194.523C477.16 196.216 477.121 200.721 477.043 208.039C475.598 208.286 474.393 208.41 473.43 208.41C472.466 208.41 471.652 208.286 470.988 208.039C471.223 204.875 471.34 201.958 471.34 199.289C471.34 196.607 471.307 194.296 471.242 192.355C471.242 191.366 470.891 190.78 470.188 190.598C469.745 190.454 469.12 190.35 468.312 190.285C468.234 189.947 468.195 189.68 468.195 189.484C468.195 189.276 468.221 189.087 468.273 188.918C470.148 187.863 472.479 187.336 475.266 187.336C475.721 187.336 476.06 187.342 476.281 187.355C476.789 188.228 477.069 189.725 477.121 191.848C479.556 188.723 482.408 187.16 485.676 187.16C487.186 187.16 488.365 187.674 489.211 188.703C490.07 189.719 490.559 191.099 490.676 192.844C490.728 193.638 490.754 194.432 490.754 195.227C490.754 196.021 490.715 196.88 490.637 197.805C490.415 200.617 490.305 202.772 490.305 204.27C490.305 204.608 490.546 204.868 491.027 205.051C491.509 205.233 491.978 205.324 492.434 205.324C492.902 205.324 493.221 205.298 493.391 205.246C493.547 205.598 493.625 205.923 493.625 206.223C493.625 206.509 493.612 206.704 493.586 206.809C491.151 208.072 489.335 208.703 488.137 208.703C486.939 208.703 486.092 208.299 485.598 207.492C485.103 206.672 484.855 205.428 484.855 203.762ZM527.746 196.965L527.629 203.527C527.629 203.592 527.629 203.658 527.629 203.723C527.629 204.439 527.967 204.797 528.645 204.797C529.165 204.797 529.719 204.628 530.305 204.289C530.487 204.445 530.656 204.667 530.812 204.953C530.982 205.227 531.079 205.441 531.105 205.598C529.491 207.655 527.811 208.684 526.066 208.684C524.335 208.684 523.124 207.831 522.434 206.125C521.236 206.958 520.012 207.59 518.762 208.02C517.525 208.462 516.457 208.684 515.559 208.684C514.673 208.684 513.846 208.586 513.078 208.391C512.323 208.195 511.62 207.883 510.969 207.453C509.562 206.542 508.859 205.038 508.859 202.941C508.859 201.822 509.165 200.845 509.777 200.012C510.402 199.165 511.249 198.501 512.316 198.02C514.361 197.095 516.802 196.594 519.641 196.516L521.906 196.438C521.997 195.383 522.043 194.549 522.043 193.938C522.043 192.557 521.776 191.516 521.242 190.812C520.721 190.109 519.745 189.758 518.312 189.758C517.453 189.758 516.783 190.057 516.301 190.656C515.832 191.255 515.598 192.141 515.598 193.312C515.598 193.469 515.376 193.658 514.934 193.879C514.191 194.23 513.449 194.406 512.707 194.406C511.978 194.406 511.392 194.198 510.949 193.781C510.52 193.365 510.305 192.779 510.305 192.023C510.305 191.268 510.578 190.559 511.125 189.895C511.672 189.23 512.401 188.716 513.312 188.352C515.122 187.635 517.186 187.277 519.504 187.277C521.926 187.277 523.697 187.661 524.816 188.43C525.832 189.107 526.555 190.077 526.984 191.34C527.492 192.811 527.746 194.686 527.746 196.965ZM521.906 204.074C521.737 203.124 521.652 202.303 521.652 201.613C521.652 200.91 521.672 199.934 521.711 198.684L518.996 198.801C517.603 198.801 516.529 199.139 515.773 199.816C515.018 200.493 514.641 201.34 514.641 202.355C514.641 203.371 514.862 204.1 515.305 204.543C515.747 204.986 516.639 205.207 517.98 205.207C519.335 205.207 520.643 204.829 521.906 204.074ZM535.773 183.078C535.552 181.815 534.725 181.099 533.293 180.93C533.202 180.292 533.156 179.934 533.156 179.855C533.156 179.764 533.163 179.667 533.176 179.562C535.637 178.599 538.13 178.117 540.656 178.117C540.773 178.117 540.897 178.117 541.027 178.117C541.301 178.469 541.483 179.289 541.574 180.578C541.665 181.854 541.711 184.836 541.711 189.523C541.711 194.198 541.639 200.357 541.496 208C540.637 208.247 539.608 208.371 538.41 208.371C537.212 208.371 536.281 208.234 535.617 207.961C535.852 206.216 535.969 202.889 535.969 197.98C535.969 193.072 535.904 188.104 535.773 183.078ZM547.375 183.078C547.154 181.815 546.327 181.099 544.895 180.93C544.803 180.292 544.758 179.934 544.758 179.855C544.758 179.764 544.764 179.667 544.777 179.562C547.238 178.599 549.732 178.117 552.258 178.117C552.375 178.117 552.499 178.117 552.629 178.117C552.902 178.469 553.085 179.289 553.176 180.578C553.267 181.854 553.312 184.836 553.312 189.523C553.312 194.198 553.241 200.357 553.098 208C552.238 208.247 551.21 208.371 550.012 208.371C548.814 208.371 547.883 208.234 547.219 207.961C547.453 206.216 547.57 202.889 547.57 197.98C547.57 193.072 547.505 188.104 547.375 183.078ZM572.16 213.527C572.303 214.061 572.551 214.536 572.902 214.953C573.267 215.383 573.71 215.598 574.23 215.598C575.077 215.598 575.865 215.038 576.594 213.918C577.323 212.811 577.948 211.249 578.469 209.23C578.208 208.488 577.479 206.815 576.281 204.211C575.096 201.607 573.697 198.833 572.082 195.891C570.272 192.609 568.944 190.826 568.098 190.539C567.902 190.474 567.688 190.435 567.453 190.422C567.232 190.409 567.036 190.396 566.867 190.383C566.685 190.37 566.568 190.363 566.516 190.363C566.424 189.725 566.379 189.367 566.379 189.289C566.379 189.198 566.385 189.1 566.398 188.996C568.495 187.824 570.448 187.238 572.258 187.238C573.026 187.238 573.768 187.388 574.484 187.688C575.201 187.987 576.132 189.51 577.277 192.258C578.436 194.992 579.745 199.029 581.203 204.367C582.909 198.612 584.237 193.944 585.188 190.363C585.461 189.322 585.943 188.534 586.633 188C587.336 187.466 588.02 187.199 588.684 187.199C590.611 187.199 591.835 187.948 592.355 189.445C592.199 189.445 591.887 189.693 591.418 190.188C590.962 190.669 590.461 191.333 589.914 192.18C589.367 193.013 588.762 194.146 588.098 195.578C587.447 197.01 586.841 198.482 586.281 199.992C585.734 201.503 585.135 203.117 584.484 204.836C583.833 206.542 583.202 208.169 582.59 209.719C581.991 211.281 581.32 212.785 580.578 214.23C579.836 215.676 579.094 216.919 578.352 217.961C577.609 219.016 576.776 219.855 575.852 220.48C574.927 221.118 574.029 221.438 573.156 221.438C572.297 221.438 571.581 221.314 571.008 221.066C570.448 220.832 570.012 220.513 569.699 220.109C569.1 219.289 568.801 218.397 568.801 217.434C568.801 216.483 569.12 215.65 569.758 214.934C570.409 214.217 571.21 213.749 572.16 213.527ZM617.258 197.375C617.258 199.081 616.952 200.682 616.34 202.18C615.728 203.677 614.862 204.901 613.742 205.852C611.49 207.766 608.514 208.723 604.816 208.723C602.967 208.723 601.262 208.286 599.699 207.414C598.137 206.542 596.893 205.324 595.969 203.762C595.044 202.186 594.582 200.311 594.582 198.137C594.582 195.949 595.142 193.983 596.262 192.238C598.462 188.801 602.154 187.082 607.336 187.082C609.94 187.082 612.225 187.974 614.191 189.758C616.236 191.62 617.258 194.159 617.258 197.375ZM600.344 197.941C600.344 200.168 600.988 202.115 602.277 203.781C603.566 205.448 605.077 206.281 606.809 206.281C610.012 206.281 611.613 203.671 611.613 198.449C611.613 195.858 611.021 193.755 609.836 192.141C608.651 190.526 607.141 189.719 605.305 189.719C604.38 189.719 603.579 189.953 602.902 190.422C602.225 190.891 601.711 191.522 601.359 192.316C600.682 193.84 600.344 195.715 600.344 197.941ZM622.141 190.266C621.281 190.266 620.852 189.895 620.852 189.152C620.852 188.944 620.865 188.788 620.891 188.684C621.346 188.358 622.46 188.046 624.23 187.746C626.001 187.434 627.434 187.277 628.527 187.277C628.931 188.592 629.133 190.07 629.133 191.711C629.133 193.352 629.048 195.227 628.879 197.336C628.723 199.432 628.645 200.91 628.645 201.77C628.645 202.629 628.775 203.326 629.035 203.859C629.296 204.38 629.829 204.641 630.637 204.641C631.457 204.641 632.297 204.445 633.156 204.055C634.029 203.651 635.135 202.915 636.477 201.848C636.477 197.837 636.49 193.072 636.516 187.551C638.013 187.316 639.217 187.199 640.129 187.199C641.053 187.199 641.854 187.316 642.531 187.551C642.336 190.402 642.238 193.143 642.238 195.773C642.238 198.391 642.31 201.118 642.453 203.957C642.479 204.387 642.564 204.719 642.707 204.953C642.85 205.188 643.221 205.324 643.82 205.363C644.432 205.402 644.855 205.467 645.09 205.559C645.142 205.832 645.168 206.275 645.168 206.887C644.035 207.525 642.896 207.98 641.75 208.254C640.604 208.54 639.634 208.684 638.84 208.684C638.046 208.684 637.499 208.391 637.199 207.805C636.913 207.219 636.685 206.047 636.516 204.289C633.339 207.219 630.305 208.684 627.414 208.684C624.523 208.684 623.078 206.392 623.078 201.809L623.41 191.477C623.41 191.034 623.273 190.721 623 190.539C622.74 190.357 622.453 190.266 622.141 190.266ZM661.965 194.895C661.965 192.668 661.457 191.555 660.441 191.555C659.699 191.555 658.99 191.77 658.312 192.199C657.635 192.616 656.906 193.202 656.125 193.957C656.125 195.259 656.086 199.953 656.008 208.039C654.562 208.286 653.378 208.41 652.453 208.41C651.542 208.41 650.754 208.286 650.09 208.039C650.246 205.878 650.324 202.173 650.324 196.926V192.355C650.324 191.366 649.979 190.78 649.289 190.598C648.82 190.454 648.189 190.35 647.395 190.285C647.303 189.895 647.258 189.602 647.258 189.406C647.258 189.198 647.264 189.035 647.277 188.918C649.152 187.863 651.47 187.336 654.23 187.336C654.686 187.336 655.025 187.342 655.246 187.355C655.624 188.007 655.845 188.684 655.91 189.387C655.988 190.09 656.047 190.76 656.086 191.398C657.831 189.276 659.302 187.987 660.5 187.531C661.073 187.31 661.678 187.199 662.316 187.199C663.618 187.199 664.66 187.564 665.441 188.293C666.236 189.009 666.633 190.064 666.633 191.457C666.633 192.525 666.242 193.417 665.461 194.133C664.693 194.836 663.762 195.188 662.668 195.188C662.434 195.188 662.199 195.168 661.965 195.129V194.895ZM325.656 235.691L325.48 247.723C325.48 250.496 325.52 253.868 325.598 257.84C325.598 258.712 325.956 259.181 326.672 259.246C326.828 259.259 327.069 259.266 327.395 259.266C327.72 259.266 327.974 259.272 328.156 259.285C328.299 259.533 328.371 259.793 328.371 260.066C328.371 260.34 328.352 260.574 328.312 260.77C326.047 262.046 324.139 262.684 322.59 262.684C321.509 262.514 320.643 261.674 319.992 260.164C319.068 261.049 318.156 261.688 317.258 262.078C316.359 262.482 315.383 262.684 314.328 262.684C313.273 262.684 312.31 262.573 311.438 262.352C310.578 262.143 309.725 261.779 308.879 261.258C308.033 260.737 307.297 260.086 306.672 259.305C305.266 257.547 304.562 255.177 304.562 252.195C304.562 250.464 304.888 248.901 305.539 247.508C306.19 246.115 307.062 244.982 308.156 244.109C310.396 242.326 313.085 241.434 316.223 241.434C317.121 241.434 318.365 241.557 319.953 241.805L319.836 236.648C319.797 235.997 319.549 235.483 319.094 235.105C318.651 234.728 318.085 234.507 317.395 234.441C317.303 233.803 317.258 233.445 317.258 233.367C317.258 233.276 317.264 233.178 317.277 233.074C319.738 232.124 322.193 231.648 324.641 231.648C324.758 231.648 324.875 231.648 324.992 231.648C325.174 231.896 325.331 232.41 325.461 233.191C325.591 233.973 325.656 234.806 325.656 235.691ZM317.199 244.285C315.272 244.285 313.69 244.897 312.453 246.121C311.229 247.345 310.617 249.201 310.617 251.688C310.617 253.393 310.812 254.786 311.203 255.867C311.607 256.935 312.049 257.716 312.531 258.211C313.482 259.188 314.478 259.676 315.52 259.676C316.561 259.676 317.355 259.52 317.902 259.207C318.449 258.895 319.133 258.276 319.953 257.352C320.044 255.633 320.09 253.543 320.09 251.082C320.09 248.608 320.07 246.421 320.031 244.52C319.068 244.363 318.124 244.285 317.199 244.285ZM337.727 253.562C338.117 255.49 338.951 257.046 340.227 258.23C341.503 259.415 342.993 260.008 344.699 260.008C346.405 260.008 348.124 259.272 349.855 257.801C350.507 258.23 350.904 258.738 351.047 259.324C349.849 260.717 348.078 261.714 345.734 262.312C344.784 262.56 343.684 262.684 342.434 262.684C341.197 262.684 339.914 262.456 338.586 262C337.258 261.557 336.066 260.906 335.012 260.047C333.97 259.188 333.143 258.061 332.531 256.668C331.919 255.262 331.613 253.706 331.613 252C331.613 250.294 331.926 248.751 332.551 247.371C333.176 245.978 334.003 244.839 335.031 243.953C337.18 242.091 339.641 241.16 342.414 241.16C344.849 241.16 346.958 241.818 348.742 243.133C349.602 243.784 350.285 244.63 350.793 245.672C351.314 246.701 351.574 247.866 351.574 249.168C351.574 251.395 350.839 252.566 349.367 252.684L337.727 253.562ZM346.32 248.582C346.32 247.033 345.891 245.822 345.031 244.949C344.172 244.077 343.046 243.641 341.652 243.641C340.259 243.641 339.204 244.298 338.488 245.613C337.772 246.915 337.414 248.725 337.414 251.043C340.656 250.691 343.586 250.32 346.203 249.93C346.281 249.461 346.32 249.012 346.32 248.582ZM371.887 240.77C374.335 240.77 375.559 241.941 375.559 244.285C375.559 246.095 374.608 248.576 372.707 251.727C370.259 255.776 368.384 259.35 367.082 262.449C366.613 262.632 366.092 262.723 365.52 262.723C364.947 262.723 364.387 262.612 363.84 262.391C363.293 262.169 362.915 261.922 362.707 261.648C362.512 261.375 362.069 260.385 361.379 258.68C360.702 256.974 359.986 255.19 359.23 253.328C358.488 251.466 357.655 249.669 356.73 247.938C355.806 246.206 355.031 245.145 354.406 244.754C354.198 244.624 353.573 244.52 352.531 244.441C352.518 244.337 352.499 244.227 352.473 244.109C352.447 243.979 352.427 243.882 352.414 243.816C352.375 243.543 352.375 243.296 352.414 243.074C354.302 242.02 356.418 241.492 358.762 241.492C359.191 241.492 359.51 241.499 359.719 241.512C360.253 242.072 361.053 243.654 362.121 246.258C363.189 248.849 364.51 252.671 366.086 257.723C368.885 249.585 370.35 244.865 370.48 243.562C370.52 243.237 370.539 242.872 370.539 242.469C370.539 242.052 370.415 241.655 370.168 241.277C370.168 241.16 370.357 241.049 370.734 240.945C371.112 240.828 371.496 240.77 371.887 240.77ZM380.773 232.078C381.542 231.427 382.375 231.102 383.273 231.102C384.172 231.102 384.914 231.382 385.5 231.941C386.086 232.488 386.379 233.263 386.379 234.266C386.379 235.268 386.001 236.115 385.246 236.805C384.491 237.482 383.625 237.82 382.648 237.82C381.685 237.82 380.923 237.521 380.363 236.922C379.816 236.323 379.543 235.555 379.543 234.617C379.543 233.68 379.953 232.833 380.773 232.078ZM380.246 246.355C380.246 245.366 379.901 244.78 379.211 244.598C378.768 244.454 378.143 244.35 377.336 244.285C377.245 243.895 377.199 243.602 377.199 243.406C377.199 243.198 377.206 243.035 377.219 242.918C379.094 241.863 381.444 241.336 384.27 241.336C384.725 241.336 385.064 241.342 385.285 241.355C385.65 241.928 385.904 243.048 386.047 244.715C386.151 245.47 386.203 246.609 386.203 248.133C386.203 249.656 386.151 254.292 386.047 262.039C384.602 262.286 383.397 262.41 382.434 262.41C381.483 262.41 380.676 262.286 380.012 262.039C380.246 258.901 380.363 256.095 380.363 253.621C380.363 251.134 380.324 248.712 380.246 246.355ZM410.305 246.043C410.305 248.022 409.276 249.012 407.219 249.012C406.516 249.012 406.008 248.934 405.695 248.777C405.383 248.608 405.227 248.51 405.227 248.484C405.266 248.237 405.285 247.983 405.285 247.723C405.285 246.499 404.888 245.529 404.094 244.812C403.312 244.083 402.258 243.719 400.93 243.719C399.602 243.719 398.534 244.292 397.727 245.438C396.919 246.57 396.516 248.335 396.516 250.73C396.516 253.126 397.206 255.242 398.586 257.078C399.979 258.914 401.529 259.832 403.234 259.832C404.706 259.832 406.177 259.24 407.648 258.055C407.987 257.781 408.326 257.456 408.664 257.078C408.951 257.26 409.243 257.521 409.543 257.859C409.855 258.185 410.044 258.497 410.109 258.797C409.497 259.617 408.573 260.405 407.336 261.16C405.643 262.176 403.775 262.684 401.73 262.684C399.686 262.684 397.824 262.254 396.145 261.395C394.478 260.535 393.163 259.305 392.199 257.703C391.236 256.102 390.754 254.279 390.754 252.234C390.754 248.302 392.206 245.268 395.109 243.133C396.971 241.766 399.237 241.082 401.906 241.082C404.159 241.082 406.118 241.57 407.785 242.547C408.54 242.99 409.146 243.517 409.602 244.129C410.057 244.741 410.292 245.379 410.305 246.043ZM419.641 253.562C420.031 255.49 420.865 257.046 422.141 258.23C423.417 259.415 424.908 260.008 426.613 260.008C428.319 260.008 430.038 259.272 431.77 257.801C432.421 258.23 432.818 258.738 432.961 259.324C431.763 260.717 429.992 261.714 427.648 262.312C426.698 262.56 425.598 262.684 424.348 262.684C423.111 262.684 421.828 262.456 420.5 262C419.172 261.557 417.98 260.906 416.926 260.047C415.884 259.188 415.057 258.061 414.445 256.668C413.833 255.262 413.527 253.706 413.527 252C413.527 250.294 413.84 248.751 414.465 247.371C415.09 245.978 415.917 244.839 416.945 243.953C419.094 242.091 421.555 241.16 424.328 241.16C426.763 241.16 428.872 241.818 430.656 243.133C431.516 243.784 432.199 244.63 432.707 245.672C433.228 246.701 433.488 247.866 433.488 249.168C433.488 251.395 432.753 252.566 431.281 252.684L419.641 253.562ZM428.234 248.582C428.234 247.033 427.805 245.822 426.945 244.949C426.086 244.077 424.96 243.641 423.566 243.641C422.173 243.641 421.118 244.298 420.402 245.613C419.686 246.915 419.328 248.725 419.328 251.043C422.57 250.691 425.5 250.32 428.117 249.93C428.195 249.461 428.234 249.012 428.234 248.582ZM438.195 255.789C438.495 255.737 438.924 255.711 439.484 255.711C440.057 255.711 440.812 255.939 441.75 256.395C441.737 256.499 441.73 256.694 441.73 256.98C441.73 257.267 441.796 257.618 441.926 258.035C442.069 258.452 442.284 258.836 442.57 259.188C443.195 259.969 444.224 260.359 445.656 260.359C447.089 260.359 448.026 259.878 448.469 258.914C448.846 258.029 448.781 257.111 448.273 256.16C447.896 255.457 446.887 254.786 445.246 254.148C444.973 254.044 444.595 253.901 444.113 253.719C439.79 252.169 437.603 249.93 437.551 247C437.551 245.672 437.922 244.552 438.664 243.641C440.07 241.935 442.447 241.082 445.793 241.082C447.993 241.082 449.849 241.538 451.359 242.449C452.883 243.361 453.645 244.48 453.645 245.809C453.645 247.293 452.922 248.035 451.477 248.035C450.448 248.035 449.725 247.924 449.309 247.703C448.892 247.469 448.684 247.339 448.684 247.312C448.684 247.234 448.684 247.163 448.684 247.098C448.684 244.663 447.499 243.445 445.129 243.445C444.309 243.445 443.658 243.66 443.176 244.09C442.707 244.507 442.473 245.125 442.473 245.945C442.473 246.753 442.759 247.423 443.332 247.957C443.918 248.491 445.038 249.09 446.691 249.754C448.358 250.418 449.426 250.867 449.895 251.102C452.824 252.521 454.289 254.357 454.289 256.609C454.289 258.562 453.462 260.066 451.809 261.121C450.168 262.163 447.98 262.684 445.246 262.684C443.436 262.684 442.069 262.527 441.145 262.215C440.22 261.902 439.517 261.616 439.035 261.355C438.566 261.095 438.176 260.822 437.863 260.535C437.564 260.249 437.31 259.949 437.102 259.637C436.542 258.816 436.379 257.983 436.613 257.137C436.809 256.421 437.336 255.971 438.195 255.789Z" fill="black"/>
</svg>
