<svg width="1763" height="1085" viewBox="0 0 1763 1085" fill="none" xmlns="http://www.w3.org/2000/svg">
<rect x="738" y="754" width="70" height="174" rx="35" fill="#F3960B"/>
<rect x="283" y="167" width="980" height="657" rx="42" fill="#F3960B"/>
<rect x="324" y="210" width="899" height="597" rx="35" fill="#0C0A0A"/>
<ellipse cx="396" cy="251.5" rx="16" ry="13.5" fill="#D01F1F"/>
<ellipse cx="460" cy="251.5" rx="16" ry="13.5" fill="#F3960B"/>
<ellipse cx="523" cy="251.5" rx="16" ry="13.5" fill="#10AA32"/>
<rect x="1039" y="238" width="129" height="27" rx="13.5" fill="#F3960B"/>
<rect x="380" y="342" width="530" height="26" rx="13" fill="#F0B153"/>
<rect x="541" y="400" width="627" height="27" rx="13.5" fill="#F3960B"/>
<rect x="380" y="452" width="628" height="27" rx="13.5" fill="#F0B153"/>
<rect x="541" y="504" width="627" height="27" rx="13.5" fill="#F3960B"/>
<rect x="380" y="562" width="628" height="27" rx="13.5" fill="#F0B153"/>
<rect x="541" y="614" width="627" height="27" rx="13.5" fill="#F3960B"/>
<rect x="380" y="672" width="628" height="27" rx="13.5" fill="#F0B153"/>
<rect x="476" y="296" width="318" height="476" rx="41" transform="rotate(90 476 296)" fill="#F3960B"/>
<rect x="454" y="316" width="278" height="436" rx="38" transform="rotate(90 454 316)" fill="#201D1D"/>
<rect x="52" y="352" width="167" height="19" rx="9.5" fill="#F3960B"/>
<rect x="228" y="383" width="167" height="20" rx="10" fill="#F0B153"/>
<rect x="52" y="446" width="167" height="19" rx="9.5" fill="#F3960B"/>
<rect x="228" y="493" width="167" height="20" rx="10" fill="#F0B153"/>
<rect x="42" y="537" width="167" height="20" rx="10" fill="#F3960B"/>
<circle cx="418.5" cy="455.5" r="15.5" fill="#F3960B"/>
<rect x="1188" width="169" height="316" rx="44" fill="#F3960B"/>
<rect x="1210" y="16" width="127" height="279" rx="49" fill="#0C0A0A"/>
<ellipse cx="1273" cy="255.5" rx="17" ry="17.5" fill="#F3960B"/>
<rect x="999" y="412" width="617" height="414" rx="46" fill="#F3960B"/>
<rect x="1017" y="439" width="581" height="359" rx="43" fill="#0C0A0A"/>
<ellipse cx="1307.5" cy="479.5" rx="17.5" ry="18.5" fill="#F3960B"/>
<ellipse cx="1307.5" cy="480" rx="14.5" ry="13" fill="#0C0A0A"/>
<path d="M992.181 919.973C954.281 894.247 972.49 835 1018.3 835H1600.44C1641.91 835 1662.63 885.175 1633.25 914.443V914.443C1624.54 923.125 1612.74 928 1600.44 928H1018.3C1008.98 928 999.886 925.204 992.181 919.973V919.973Z" fill="#F3960B"/>
</svg>
