<svg width="1907" height="617" viewBox="0 0 1907 617" fill="none" xmlns="http://www.w3.org/2000/svg">
<rect x="1576" y="141" width="302" height="382" rx="32" fill="#0C0A0A"/>
<path d="M1820 201.5C1820 157.607 1810.2 115.511 1792.76 84.4738C1775.32 53.4366 1751.67 36 1727 36C1702.33 36 1678.68 53.4365 1661.24 84.4738C1643.8 115.511 1634 157.607 1634 201.5L1659.2 201.5C1659.2 169.499 1666.34 138.808 1679.06 116.18C1691.77 93.5516 1709.02 80.8392 1727 80.8392C1744.98 80.8392 1762.23 93.5516 1774.94 116.18C1787.66 138.808 1794.8 169.499 1794.8 201.5H1820Z" fill="#0C0A0A"/>
<rect x="1690" y="259" width="74" height="147" rx="36" fill="#F3960B"/>
<rect x="396" y="341" width="14" height="48" fill="#D9D9D9"/>
<rect x="1715" y="303" width="25" height="64" fill="#D9D9D9"/>
<rect width="786" height="617" rx="41" fill="#0C0A0A"/>
<rect x="336" y="64" width="114" height="25" rx="12.5" fill="#F3960B"/>
<rect x="473" y="64" width="113" height="25" rx="12.5" fill="#F3960B"/>
<rect x="622" y="64" width="115" height="25" rx="12.5" fill="#F3960B"/>
<circle cx="57.5" cy="77.5" r="22.5" fill="#CE2626"/>
<ellipse cx="139" cy="77.5" rx="23" ry="22.5" fill="#49BF1F"/>
<path d="M356.215 207.754C372.181 178.781 413.819 178.781 429.785 207.754L549.212 424.48C564.636 452.471 544.387 486.75 512.427 486.75H273.573C241.613 486.75 221.364 452.471 236.788 424.48L356.215 207.754Z" fill="#CE2626"/>
<rect x="376" y="238" width="33" height="143" rx="16.5" fill="#F3960B"/>
<rect x="376" y="418" width="33" height="44" fill="#F3960B"/>
<rect x="872" y="281" width="538" height="98" rx="49" fill="#F3960B"/>
<path d="M1472.3 317.077C1481 325.355 1481 339.23 1472.3 347.507L1367.44 447.25C1354.07 459.971 1331.96 450.49 1331.97 432.033L1331.97 232.538C1331.97 214.081 1354.07 204.603 1367.44 217.325L1472.3 317.077Z" fill="#F3960B"/>
</svg>
