<svg width="423" height="206" viewBox="0 0 423 206" fill="none" xmlns="http://www.w3.org/2000/svg">
<path d="M51 130C51 129.448 51.4477 129 52 129H78C78.5523 129 79 129.448 79 130V171C79 178.732 72.732 185 65 185V185C57.268 185 51 178.732 51 171V130Z" fill="#F3960B"/>
<ellipse cx="325" cy="108" rx="54" ry="62" fill="#0C0A0A"/>
<rect x="310" y="140" width="29" height="59" rx="14.5" fill="#0C0A0A"/>
<rect x="306" y="99" width="39" height="9" rx="4.5" fill="#F3960B"/>
<rect x="320" y="137" width="58" height="10" rx="5" transform="rotate(-90 320 137)" fill="#F3960B"/>
<ellipse cx="66.5" cy="105" rx="56.5" ry="59" fill="#0C0A0A"/>
<rect width="11.0689" height="34.3044" rx="5.53443" transform="matrix(0.508357 0.861146 -0.808629 0.588319 266.943 132.257)" fill="#F3960B"/>
<rect width="10.9134" height="34.8203" rx="5.45672" transform="matrix(-0.623892 0.781511 -0.712825 -0.701341 270.642 78.7734)" fill="#F3960B"/>
<rect width="10.2667" height="36.8162" rx="5.13335" transform="matrix(-0.999437 -0.0335568 0.0272328 -0.999629 329.819 37.1471)" fill="#F3960B"/>
<rect width="10.8191" height="35.1261" rx="5.40957" transform="matrix(0.686557 0.727076 -0.651723 0.758457 409.572 46.4626)" fill="#F3960B"/>
<rect width="10.9344" height="34.7517" rx="5.46719" transform="matrix(0.609335 -0.792913 0.726045 0.687647 377.993 147.181)" fill="#F3960B"/>
<ellipse cx="66.5" cy="87" rx="24.5" ry="23" fill="#F3960B"/>
<rect width="2.88897" height="25.2979" transform="matrix(0.647169 0.762347 -0.485802 0.874069 73.9882 74.5009)" fill="#1B1818"/>
<rect width="2.83365" height="11.5121" transform="matrix(-0.709949 0.704253 -0.644986 -0.764194 65.2215 97.2589)" fill="#1B1818"/>
<path d="M40 122C40 128.63 42.792 134.989 47.7617 139.678C52.7314 144.366 59.4718 147 66.5 147C73.5282 147 80.2686 144.366 85.2383 139.678C90.208 134.989 93 128.63 93 122L87.9026 122C87.9026 127.355 85.6477 132.491 81.6339 136.277C77.6202 140.064 72.1763 142.191 66.5 142.191C60.8237 142.191 55.3798 140.064 51.3661 136.277C47.3523 132.491 45.0974 127.355 45.0974 122L40 122Z" fill="#F3960B"/>
</svg>
