<svg width="717" height="418" viewBox="0 0 717 418" fill="none" xmlns="http://www.w3.org/2000/svg">
<g clip-path="url(#clip0_9_34)">
<path d="M574.53 231.842C588.849 240.241 585.239 261.878 568.988 265.053L198.419 337.455C186.078 339.866 175.096 329.163 177.168 316.745L221.215 52.8129C223.287 40.3943 237.134 33.9341 248.008 40.3125L574.53 231.842Z" fill="#111010"/>
<rect width="48.1782" height="165.767" rx="24.0891" transform="matrix(0.884513 -0.466515 0.457896 0.889006 407.757 241.369)" fill="#110F0F"/>
<rect width="23.831" height="84.2918" rx="11.9155" transform="matrix(0.524787 0.851234 -0.845597 0.533822 146.277 248)" fill="#F48B0E"/>
<rect width="23.9092" height="84.0113" rx="11.9546" transform="matrix(-0.0373921 0.999301 -0.999267 -0.0382881 157.155 185.753)" fill="#F48B0E"/>
<rect width="23.8472" height="84.2338" rx="11.9236" transform="matrix(-0.46722 0.884141 -0.879491 -0.475916 170.225 139.088)" fill="#F48B0E"/>
<rect width="23.7071" height="84.7325" rx="11.8535" transform="matrix(-0.730326 0.683099 -0.675283 -0.737559 196.532 82.4952)" fill="#F48B0E"/>
<path d="M244.744 273.065C265.098 275.098 285.463 268.599 301.358 254.997C317.252 241.394 327.376 221.803 329.501 200.533C331.626 179.263 325.578 158.057 312.689 141.578C299.799 125.1 281.123 114.701 260.769 112.667L260.175 118.615C279.019 120.498 296.31 130.126 308.244 145.382C320.177 160.638 325.776 180.272 323.809 199.965C321.842 219.657 312.469 237.795 297.753 250.388C283.037 262.982 264.183 268.999 245.339 267.116L244.744 273.065Z" fill="#F48B0E"/>
</g>
<defs>
<clipPath id="clip0_9_34">
<rect width="717" height="418" fill="white"/>
</clipPath>
</defs>
</svg>
