<svg width="907" height="814" viewBox="0 0 907 814" fill="none" xmlns="http://www.w3.org/2000/svg">
<g clip-path="url(#clip0_11_66)">
<rect x="206" y="142.566" width="44" height="450" rx="22" fill="#0C0A0A"/>
<rect width="43.9077" height="458.054" rx="21.9538" transform="matrix(0.668577 -0.743643 0.762326 0.647193 261.842 127.5)" fill="#0C0A0A"/>
<rect width="866.204" height="205.853" rx="102.926" transform="matrix(0.920422 -0.390926 0.410198 0.911996 0 640.829)" fill="#0C0A0A"/>
<path d="M124.043 642.652L134.338 638.059L162.768 698.225C165.306 703.595 166.465 708.602 166.247 713.244C166.028 717.887 164.565 721.989 161.859 725.552C159.153 729.115 155.338 731.996 150.412 734.194C145.763 736.268 141.231 737.278 136.816 737.225C132.388 737.144 128.398 736.004 124.847 733.807C121.296 731.61 118.504 728.36 116.471 724.059L126.599 719.54C127.726 721.923 129.305 723.74 131.336 724.99C133.382 726.2 135.69 726.829 138.259 726.877C140.828 726.925 143.455 726.35 146.139 725.152C149.1 723.831 151.327 722.091 152.82 719.932C154.313 717.773 155.036 715.261 154.989 712.395C154.957 709.49 154.118 706.298 152.474 702.819L124.043 642.652ZM219.935 703.371C214.179 705.939 208.488 706.836 202.862 706.063C197.263 705.276 192.094 702.988 187.354 699.198C182.642 695.395 178.745 690.234 175.664 683.713C172.557 677.137 171.048 670.86 171.138 664.882C171.256 658.891 172.833 653.576 175.868 648.937C178.931 644.286 183.34 640.677 189.096 638.108C194.852 635.54 200.53 634.649 206.128 635.435C211.755 636.209 216.931 638.51 221.656 642.34C226.408 646.158 230.338 651.355 233.445 657.93C236.527 664.451 238.002 670.693 237.871 676.657C237.768 682.608 236.185 687.909 233.122 692.56C230.087 697.199 225.691 700.802 219.935 703.371ZM215.818 694.658C220.19 692.707 223.264 689.992 225.038 686.513C226.812 683.035 227.522 679.184 227.169 674.963C226.816 670.741 225.643 666.521 223.649 662.301C221.655 658.082 219.119 654.453 216.042 651.414C212.964 648.375 209.483 646.362 205.598 645.375C201.714 644.388 197.586 644.87 193.213 646.821C188.841 648.772 185.774 651.5 184.013 655.006C182.252 658.513 181.555 662.39 181.921 666.639C182.287 670.888 183.466 675.122 185.46 679.342C187.454 683.561 189.983 687.176 193.048 690.188C196.113 693.199 199.581 695.185 203.453 696.145C207.324 697.105 211.446 696.609 215.818 694.658ZM263.158 682.492L233.329 619.366L243.126 614.995L272.954 678.12L263.158 682.492ZM233.339 606.623C231.43 607.475 229.479 607.566 227.487 606.895C225.522 606.213 224.113 604.967 223.258 603.159C222.404 601.351 222.35 599.5 223.098 597.607C223.873 595.702 225.215 594.324 227.125 593.472C229.034 592.62 230.971 592.535 232.936 593.217C234.928 593.888 236.351 595.127 237.205 596.935C238.06 598.744 238.1 600.6 237.324 602.505C236.577 604.398 235.248 605.771 233.339 606.623ZM282.749 627.769L300.693 665.743L290.897 670.114L261.068 606.989L270.532 602.766L275.193 612.629L276.023 612.259C276.003 608.386 277.055 604.798 279.18 601.495C281.292 598.164 284.755 595.424 289.57 593.276C293.887 591.349 298.079 590.541 302.145 590.849C306.199 591.131 309.96 592.637 313.429 595.369C316.885 598.073 319.881 602.11 322.419 607.481L341.373 647.591L331.576 651.963L312.933 612.509C310.59 607.55 307.464 604.267 303.555 602.661C299.633 601.027 295.403 601.223 290.865 603.248C287.738 604.643 285.26 606.561 283.431 609.003C281.631 611.432 280.633 614.249 280.439 617.454C280.244 620.66 281.015 624.098 282.749 627.769ZM409.495 515.281L419.789 510.687L446.123 566.415C448.841 572.169 449.899 577.917 449.296 583.66C448.707 589.364 446.551 594.622 442.827 599.435C439.091 604.221 433.888 608.102 427.219 611.078C420.549 614.054 414.129 615.359 407.959 614.994C401.776 614.601 396.252 612.77 391.39 609.499C386.541 606.188 382.758 601.656 380.039 595.902L353.706 540.174L364 535.581L389.945 590.487C391.887 594.597 394.529 597.847 397.87 600.238C401.198 602.601 404.984 603.947 409.228 604.276C413.486 604.566 417.981 603.655 422.713 601.543C427.445 599.432 431.086 596.712 433.635 593.385C436.172 590.031 437.588 586.363 437.885 582.382C438.197 578.362 437.382 574.297 435.44 570.187L409.495 515.281ZM500.804 517.134L493.17 523.527C491.93 522.322 490.447 521.275 488.72 520.387C487.008 519.459 485.026 518.95 482.772 518.861C480.518 518.772 477.966 519.363 475.116 520.635C471.214 522.376 468.383 524.717 466.624 527.659C464.879 530.561 464.647 533.368 465.929 536.08C467.068 538.491 468.853 540 471.285 540.607C473.716 541.214 477.033 541.144 481.237 540.396L491.789 538.475C498.137 537.301 503.375 537.501 507.504 539.076C511.619 540.624 514.719 543.603 516.804 548.014C518.512 551.631 518.989 555.333 518.232 559.121C517.503 562.896 515.659 566.439 512.7 569.75C509.741 573.061 505.784 575.822 500.831 578.032C494.328 580.934 488.285 581.938 482.703 581.045C477.121 580.152 472.493 577.274 468.821 572.41L477.032 565.96C479.523 568.962 482.401 570.763 485.667 571.363C488.96 571.95 492.613 571.348 496.625 569.558C501.192 567.52 504.364 564.944 506.142 561.828C507.934 558.673 508.19 555.739 506.908 553.027C505.872 550.835 504.23 549.345 501.981 548.557C499.72 547.741 496.809 547.68 493.249 548.373L481.458 550.648C474.971 551.884 469.679 551.675 465.58 550.02C461.495 548.326 458.424 545.301 456.365 540.945C454.682 537.383 454.204 533.781 454.929 530.14C455.682 526.487 457.447 523.095 460.224 519.965C463.028 516.823 466.671 514.251 471.154 512.251C477.464 509.436 483.065 508.595 487.957 509.73C492.877 510.852 497.159 513.32 500.804 517.134ZM564.589 502.009L582.533 539.983L572.737 544.354L542.908 481.229L552.372 477.006L557.033 486.869L557.863 486.499C557.843 482.626 558.895 479.038 561.02 475.735C563.132 472.404 566.595 469.664 571.411 467.516C575.728 465.589 579.919 464.781 583.986 465.089C588.039 465.371 591.8 466.877 595.269 469.609C598.725 472.313 601.722 476.351 604.259 481.721L623.213 521.832L613.417 526.203L594.774 486.749C592.43 481.79 589.304 478.508 585.395 476.901C581.473 475.267 577.243 475.463 572.705 477.488C569.578 478.883 567.1 480.802 565.272 483.243C563.471 485.672 562.473 488.489 562.279 491.694C562.084 494.9 562.855 498.338 564.589 502.009ZM667.637 503.601C661.881 506.17 656.19 507.067 650.564 506.293C644.965 505.507 639.796 503.219 635.056 499.429C630.344 495.626 626.447 490.464 623.366 483.944C620.259 477.368 618.75 471.091 618.841 465.112C618.958 459.122 620.535 453.807 623.57 449.168C626.633 444.517 631.043 440.907 636.799 438.339C642.555 435.77 648.232 434.879 653.831 435.665C659.457 436.439 664.633 438.741 669.358 442.571C674.11 446.389 678.04 451.585 681.148 458.161C684.229 464.682 685.704 470.924 685.573 476.887C685.47 482.839 683.887 488.14 680.824 492.791C677.789 497.429 673.393 501.033 667.637 503.601ZM663.52 494.889C667.893 492.938 670.966 490.223 672.74 486.744C674.514 483.265 675.224 479.415 674.871 475.194C674.518 470.972 673.345 466.751 671.351 462.532C669.357 458.313 666.822 454.684 663.744 451.645C660.666 448.606 657.185 446.593 653.301 445.606C649.416 444.619 645.288 445.1 640.916 447.051C636.543 449.002 633.477 451.731 631.716 455.237C629.955 458.743 629.257 462.621 629.623 466.87C629.989 471.119 631.169 475.353 633.162 479.572C635.156 483.792 637.686 487.407 640.75 490.419C643.815 493.43 647.283 495.416 651.155 496.376C655.026 497.335 659.148 496.84 663.52 494.889ZM723.137 477.244L673.882 422.787L684.176 418.194L720.795 460.375L721.459 460.079L712.236 405.673L722.697 401.005L758.906 443.17L759.57 442.874L750.591 388.559L760.886 383.965L771.288 455.759L761.658 460.056L724.795 417.785L723.799 418.229L732.767 472.947L723.137 477.244Z" fill="#F3960B"/>
<ellipse cx="79.4157" cy="73.3809" rx="79.4157" ry="73.3809" transform="matrix(0.869351 -0.494195 0.515755 0.856736 136.951 78.4937)" fill="#F3960B"/>
<ellipse cx="244" cy="102.566" rx="35" ry="32" fill="#0C0A0A"/>
</g>
<defs>
<clipPath id="clip0_11_66">
<rect width="907" height="814" fill="white"/>
</clipPath>
</defs>
</svg>
